<svg width="375" height="564" viewBox="0 0 375 564" fill="none" xmlns="http://www.w3.org/2000/svg">
<mask id="mask0_6_20" style="mask-type:alpha" maskUnits="userSpaceOnUse" x="0" y="0" width="375" height="564">
<rect width="375" height="564" fill="#D9D9D9"/>
</mask>
<g mask="url(#mask0_6_20)">
<path d="M318 79.5149C391 50.5795 438 118.515 438 118.515L447 79.515C447 79.515 370 22.5151 318 37.5149C266 52.5148 195 150.515 111 174.515C27 198.515 13 163.515 13 163.515L8 200.515C8 200.515 74.1873 211.378 116 205.515C208.074 192.605 245 108.45 318 79.5149Z" fill="#FFB129"/>
<path d="M117 506.737C44 535.672 -3.00002 467.737 -3.00002 467.737L-12 506.737C-12 506.737 65 563.736 117 548.737C169 533.737 240 435.736 324 411.737C408 387.737 422 422.737 422 422.737L427 385.737C427 385.737 360.813 374.874 319 380.737C226.926 393.647 190 477.801 117 506.737Z" fill="#3A4187"/>
<path d="M227 455C241.051 455 254.965 452.232 267.947 446.855C280.929 441.478 292.725 433.596 302.66 423.66C312.596 413.725 320.478 401.929 325.855 388.947C331.232 375.965 334 362.051 334 348C334 333.949 331.232 320.035 325.855 307.053C320.478 294.071 312.596 282.275 302.66 272.34C292.725 262.404 280.929 254.522 267.947 249.145C254.965 243.768 241.051 241 227 241L227 348L227 455Z" fill="#FFCC72"/>
<path d="M227 241C212.949 241 199.035 243.768 186.053 249.145C173.071 254.522 161.275 262.404 151.34 272.34C141.404 282.275 133.522 294.071 128.145 307.053C122.768 320.035 120 333.949 120 348C120 362.051 122.768 375.965 128.145 388.947C133.522 401.929 141.404 413.725 151.34 423.66C161.275 433.596 173.071 441.478 186.053 446.855C199.035 452.232 212.949 455 227 455L227 348L227 241Z" fill="#01CC88"/>
<rect x="260" y="-30" width="171" height="162" rx="81" fill="#FFCC72"/>
<path d="M347.444 57.8102C341.11 54.9945 341.11 46.0055 347.444 43.1898L394.75 22.1592C400.041 19.8073 406 23.6798 406 29.4694L406 71.5306C406 77.3202 400.041 81.1927 394.75 78.8408L347.444 57.8102Z" fill="#01CC88"/>
<path d="M154 350.5L226.75 278.187L226.75 422.813L154 350.5Z" fill="#FF8A00"/>
<path d="M298 350.5L226 422.813L226 278.187L298 350.5Z" fill="#FB4953"/>
<path d="M102 -34L-72 -27L-72 312C-72 312 38 359 102 267C166 175 93 110 74 67C55 24 102 -34 102 -34Z" fill="#FF2E63"/>
<rect x="-56" y="113" width="152" height="144" rx="72" fill="#01CC88"/>
<rect x="-22" y="145" width="84" height="80" rx="40" fill="#FFB129"/>
<path d="M245.143 341.143H243.428V339.429C243.428 330.908 236.521 324 228 324C219.479 324 212.571 330.908 212.571 339.429V341.143H210.857C209.91 341.143 209.143 341.91 209.143 342.857V370.286C209.143 371.232 209.91 372 210.857 372H245.143C246.09 372 246.857 371.232 246.857 370.286V342.857C246.857 341.91 246.09 341.143 245.143 341.143ZM232.849 356.55C232.331 358.015 231.179 359.167 229.714 359.685V363.429C229.714 364.375 228.947 365.143 228 365.143C227.053 365.143 226.286 364.375 226.286 363.429V359.685C223.608 358.738 222.204 355.799 223.151 353.122C224.098 350.444 227.036 349.04 229.714 349.987C232.392 350.934 233.795 353.872 232.849 356.55ZM240 341.143H216V339.429C216 332.801 221.373 327.429 228 327.429C234.627 327.429 240 332.801 240 339.429V341.143Z" fill="#FFC2C2"/>
</g>
</svg>
